<svg clip-rule="evenodd" fill-rule="evenodd" viewBox="0 0 32 32" xmlns="http://www.w3.org/2000/svg"><g transform="matrix(1.304348 0 0 1.304348 -5.565217 -3.217391)"><path d="m6 11h20l-2 13h-16z" fill="#f4e6d0" fill-rule="nonzero" stroke="#8a5a3c"/><path d="m16 11v13" fill="none" stroke="#d4bda3"/><path d="m6 11 6-5h8l6 5" fill="#fff6e9" fill-rule="nonzero" stroke="#8a5a3c"/><path d="m12 6 4 5" fill="none" stroke="#d4bda3"/><path d="m20 6-4 5" fill="none" stroke="#d4bda3"/><path d="m10 16c0-3 12-3 12 0" fill="none" stroke="#6e6e6e"/></g><circle cx="7.478263" cy="17.652177" fill="#6e6e6e" r=".652174" stroke-width="1.304348"/><circle cx="23.130439" cy="17.652177" fill="#6e6e6e" r=".652174" stroke-width="1.304348"/><path d="m11 5 1-1 13 8-1 1z" fill="#b76e3a" fill-rule="nonzero" stroke="#8a5a3c" stroke-width=".5" transform="matrix(1.304348 0 0 1.304348 -5.565217 -3.217391)"/><path d="m13 5 1-1 13 8-1 1z" fill="#c98347" fill-rule="nonzero" stroke="#8a5a3c" stroke-width=".5" transform="matrix(1.304348 0 0 1.304348 -5.565217 -3.217391)"/><ellipse cx="15.304351" cy="30.043483" fill-opacity=".13" rx="10.434784" ry="1.956522" stroke-width="1.304348"/></svg>