<?xml version="1.0" encoding="UTF-8" standalone="no"?>
<!DOCTYPE svg PUBLIC "-//W3C//DTD SVG 1.1//EN" "http://www.w3.org/Graphics/SVG/1.1/DTD/svg11.dtd">
<svg width="100%" height="100%" viewBox="0 0 32 32" version="1.1" xmlns="http://www.w3.org/2000/svg" xmlns:xlink="http://www.w3.org/1999/xlink" xml:space="preserve" xmlns:serif="http://www.serif.com/" style="fill-rule:evenodd;clip-rule:evenodd;">
    <g transform="matrix(1.304348,0,0,1.304348,-5.565217,-3.217391)">
        <path d="M6,11L26,11L24,24L8,24L6,11Z" style="fill:rgb(244,230,208);fill-rule:nonzero;stroke:rgb(138,90,60);stroke-width:1px;"/>
    </g>
    <g transform="matrix(1.304348,0,0,1.304348,-5.565217,-3.217391)">
        <path d="M16,11L16,24" style="fill:none;fill-rule:nonzero;stroke:rgb(212,189,163);stroke-width:1px;"/>
    </g>
    <g transform="matrix(1.304348,0,0,1.304348,-5.565217,-3.217391)">
        <path d="M6,11L12,6L20,6L26,11" style="fill:rgb(255,246,233);fill-rule:nonzero;stroke:rgb(138,90,60);stroke-width:1px;"/>
    </g>
    <g transform="matrix(1.304348,0,0,1.304348,-5.565217,-3.217391)">
        <path d="M12,6L16,11" style="fill:none;fill-rule:nonzero;stroke:rgb(212,189,163);stroke-width:1px;"/>
    </g>
    <g transform="matrix(1.304348,0,0,1.304348,-5.565217,-3.217391)">
        <path d="M20,6L16,11" style="fill:none;fill-rule:nonzero;stroke:rgb(212,189,163);stroke-width:1px;"/>
    </g>
    <g transform="matrix(1.304348,0,0,1.304348,-5.565217,-3.217391)">
        <path d="M10,16C10,13 22,13 22,16" style="fill:none;fill-rule:nonzero;stroke:rgb(110,110,110);stroke-width:1px;"/>
    </g>
    <g transform="matrix(1.304348,0,0,1.304348,-5.565217,-3.217391)">
        <circle cx="10" cy="16" r="0.5" style="fill:rgb(110,110,110);"/>
    </g>
    <g transform="matrix(1.304348,0,0,1.304348,-5.565217,-3.217391)">
        <circle cx="22" cy="16" r="0.5" style="fill:rgb(110,110,110);"/>
    </g>
    <g transform="matrix(1.304348,0,0,1.304348,-5.565217,-3.217391)">
        <path d="M11,5L12,4L25,12L24,13L11,5Z" style="fill:rgb(183,110,58);fill-rule:nonzero;stroke:rgb(138,90,60);stroke-width:0.5px;"/>
    </g>
    <g transform="matrix(1.304348,0,0,1.304348,-5.565217,-3.217391)">
        <path d="M13,5L14,4L27,12L26,13L13,5Z" style="fill:rgb(201,131,71);fill-rule:nonzero;stroke:rgb(138,90,60);stroke-width:0.5px;"/>
    </g>
    <g transform="matrix(1.304348,0,0,1.304348,-5.565217,-3.217391)">
        <ellipse cx="16" cy="25.5" rx="8" ry="1.5" style="fill-opacity:0.13;"/>
    </g>
</svg>
