<svg width="32" height="32" viewBox="0 0 32 32" fill="none" xmlns="http://www.w3.org/2000/svg"
    aria-hidden="true" role="img">
    <!-- Box body -->
    <path d="M6 11 L26 11 L24 24 L8 24 Z" fill="#F4E6D0" stroke="#8A5A3C" stroke-width="1" />

    <!-- Front fold line -->
    <path d="M16 11 L16 24" stroke="#D4BDA3" stroke-width="1" />

    <!-- Top flaps -->
    <path d="M6 11 L12 6 L20 6 L26 11" fill="#FFF6E9" stroke="#8A5A3C" stroke-width="1" />
    <!-- Flap creases -->
    <path d="M12 6 L16 11" stroke="#D4BDA3" stroke-width="1" />
    <path d="M20 6 L16 11" stroke="#D4BDA3" stroke-width="1" />

    <!-- Metal handle -->
    <path d="M10 16 C10 13, 22 13, 22 16" stroke="#6E6E6E" stroke-width="1" fill="none" />
    <circle cx="10" cy="16" r="0.5" fill="#6E6E6E" />
    <circle cx="22" cy="16" r="0.5" fill="#6E6E6E" />

    <!-- Chopsticks -->
    <path d="M11 5 L12 4 L25 12 L24 13 Z" fill="#B76E3A" stroke="#8A5A3C" stroke-width="0.5" />
    <path d="M13 5 L14 4 L27 12 L26 13 Z" fill="#C98347" stroke="#8A5A3C" stroke-width="0.5" />

    <!-- Subtle shadow under box for depth -->
    <ellipse cx="16" cy="25.5" rx="8" ry="1.5" fill="#00000020" />
</svg>